<mxfile host="app.diagrams.net" modified="2022-02-28T15:29:18.847Z" agent="5.0 (X11; Linux x86_64) AppleWebKit/537.36 (KHTML, like Gecko) Chrome/98.0.4758.80 Safari/537.36" etag="dix-8-59GmduCUICkL-Z" version="16.6.4" type="github">
  <diagram id="MrAFPLwB4uC4R8rRsPby" name="Page-1">
    <mxGraphModel dx="528" dy="813" grid="1" gridSize="10" guides="1" tooltips="1" connect="1" arrows="1" fold="1" page="1" pageScale="1" pageWidth="1169" pageHeight="827" math="0" shadow="0">
      <root>
        <mxCell id="0" />
        <mxCell id="1" parent="0" />
        <mxCell id="GZI6seaXNkOKclOWjDqt-44" value="Master&lt;br&gt;03" style="shape=cube;whiteSpace=wrap;html=1;boundedLbl=1;backgroundOutline=1;darkOpacity=0.05;darkOpacity2=0.1;size=10;" vertex="1" parent="1">
          <mxGeometry x="551.5799999999999" y="600" width="60" height="80" as="geometry" />
        </mxCell>
        <mxCell id="GZI6seaXNkOKclOWjDqt-50" style="edgeStyle=orthogonalEdgeStyle;curved=1;rounded=0;orthogonalLoop=1;jettySize=auto;html=1;dashed=1;endArrow=block;endFill=1;strokeWidth=2;" edge="1" parent="1" source="GZI6seaXNkOKclOWjDqt-34" target="GZI6seaXNkOKclOWjDqt-46">
          <mxGeometry relative="1" as="geometry" />
        </mxCell>
        <object placeholders="1" c4Name="" c4Application="DevOps tools" label="&lt;div style=&quot;text-align: left&quot;&gt;%c4Name%&lt;/div&gt;&lt;div style=&quot;text-align: left&quot;&gt;[%c4Application%]&lt;/div&gt;" tooltip="&lt;b&gt;%c4Name%&lt;/b&gt; [%c4Application%]" id="GZI6seaXNkOKclOWjDqt-34">
          <mxCell style="rounded=0;whiteSpace=wrap;html=1;labelBackgroundColor=none;fillColor=#ffffff;fontColor=#000000;align=left;arcSize=5;strokeColor=#000000;verticalAlign=bottom;metaEdit=1;metaData={&quot;c4Type&quot;:{&quot;editable&quot;:false}};points=[[0.25,0,0],[0.5,0,0],[0.75,0,0],[1,0.25,0],[1,0.5,0],[1,0.75,0],[0.75,1,0],[0.5,1,0],[0.25,1,0],[0,0.75,0],[0,0.5,0],[0,0.25,0]];rotatable=0;dashed=1;" vertex="1" parent="1">
            <mxGeometry x="320" y="260" width="400" height="100" as="geometry" />
          </mxCell>
        </object>
        <mxCell id="GZI6seaXNkOKclOWjDqt-3" value="GoDaddy" style="aspect=fixed;html=1;points=[];align=center;image;fontSize=12;image=img/lib/azure2/networking/DNS_Zones.svg;" vertex="1" parent="1">
          <mxGeometry x="870" y="186" width="64" height="64" as="geometry" />
        </mxCell>
        <object label="" c4Name="User" c4Description="person who uses the provided website/services." c4Type="Person" tooltip="&lt;b&gt;%c4Name%&lt;/b&gt; [%c4Type%]&#xa;%c4Description%" id="GZI6seaXNkOKclOWjDqt-4">
          <mxCell style="group;metaEdit=0;metaData={&quot;c4Type&quot;:{&quot;editable&quot;:false}};rounded=1;strokeColor=#FFFFFF;" vertex="1" connectable="0" parent="1">
            <mxGeometry x="80" y="40" width="160" height="120" as="geometry" />
          </mxCell>
        </object>
        <object label="&lt;b style=&quot;color: rgb(255 , 255 , 255)&quot;&gt;%c4Name%&lt;/b&gt;&lt;div style=&quot;color: rgb(255 , 255 , 255)&quot;&gt;[%c4Type%]&lt;/div&gt;&lt;div style=&quot;color: rgb(255 , 255 , 255)&quot;&gt;%c4Description%&lt;/div&gt;" placeholders="1" id="GZI6seaXNkOKclOWjDqt-5">
          <mxCell style="shape=trapezoid;perimeter=trapezoidPerimeter;whiteSpace=wrap;html=1;fixedSize=1;size=10;rounded=1;arcSize=50;fillColor=#08427B;strokeColor=#FFFFFF;" vertex="1" parent="GZI6seaXNkOKclOWjDqt-4">
            <mxGeometry y="30" width="160" height="90" as="geometry" />
          </mxCell>
        </object>
        <mxCell id="GZI6seaXNkOKclOWjDqt-6" value="" style="ellipse;whiteSpace=wrap;html=1;aspect=fixed;rounded=0;strokeColor=#FFFFFF;fillColor=#08427b;fontColor=#ffffff;dashed=0;" vertex="1" parent="GZI6seaXNkOKclOWjDqt-4">
          <mxGeometry x="60" width="40" height="40" as="geometry" />
        </mxCell>
        <object label="" c4Name="Ops" c4Description="person who deploys, administrates &amp; configures the cloud environment.  " c4Type="Person" tooltip="&lt;b&gt;%c4Name%&lt;/b&gt; [%c4Type%]&#xa;%c4Description%" id="GZI6seaXNkOKclOWjDqt-7">
          <mxCell style="group;metaEdit=0;metaData={&quot;c4Type&quot;:{&quot;editable&quot;:false}};rounded=1;strokeColor=#FFFFFF;" vertex="1" connectable="0" parent="1">
            <mxGeometry x="320" y="40" width="160" height="120" as="geometry" />
          </mxCell>
        </object>
        <object label="&lt;b style=&quot;color: rgb(255 , 255 , 255)&quot;&gt;%c4Name%&lt;/b&gt;&lt;div style=&quot;color: rgb(255 , 255 , 255)&quot;&gt;[%c4Type%]&lt;/div&gt;&lt;div style=&quot;color: rgb(255 , 255 , 255)&quot;&gt;%c4Description%&lt;/div&gt;" placeholders="1" id="GZI6seaXNkOKclOWjDqt-8">
          <mxCell style="shape=trapezoid;perimeter=trapezoidPerimeter;whiteSpace=wrap;html=1;fixedSize=1;size=10;rounded=1;arcSize=50;fillColor=#08427B;strokeColor=#FFFFFF;" vertex="1" parent="GZI6seaXNkOKclOWjDqt-7">
            <mxGeometry y="30" width="160" height="90" as="geometry" />
          </mxCell>
        </object>
        <mxCell id="GZI6seaXNkOKclOWjDqt-9" value="" style="ellipse;whiteSpace=wrap;html=1;aspect=fixed;rounded=0;strokeColor=#FFFFFF;fillColor=#08427b;fontColor=#ffffff;dashed=0;" vertex="1" parent="GZI6seaXNkOKclOWjDqt-7">
          <mxGeometry x="60" width="40" height="40" as="geometry" />
        </mxCell>
        <object label="" c4Name="Dev" c4Description="person who develops new websites &amp; services." c4Type="Person" tooltip="&lt;b&gt;%c4Name%&lt;/b&gt; [%c4Type%]&#xa;%c4Description%" id="GZI6seaXNkOKclOWjDqt-10">
          <mxCell style="group;metaEdit=0;metaData={&quot;c4Type&quot;:{&quot;editable&quot;:false}};rounded=1;strokeColor=#FFFFFF;" vertex="1" connectable="0" parent="1">
            <mxGeometry x="560" y="40" width="160" height="120" as="geometry" />
          </mxCell>
        </object>
        <object label="&lt;b style=&quot;color: rgb(255 , 255 , 255)&quot;&gt;%c4Name%&lt;/b&gt;&lt;div style=&quot;color: rgb(255 , 255 , 255)&quot;&gt;[%c4Type%]&lt;/div&gt;&lt;div style=&quot;color: rgb(255 , 255 , 255)&quot;&gt;%c4Description%&lt;/div&gt;" placeholders="1" id="GZI6seaXNkOKclOWjDqt-11">
          <mxCell style="shape=trapezoid;perimeter=trapezoidPerimeter;whiteSpace=wrap;html=1;fixedSize=1;size=10;rounded=1;arcSize=50;fillColor=#08427B;strokeColor=#FFFFFF;" vertex="1" parent="GZI6seaXNkOKclOWjDqt-10">
            <mxGeometry y="30" width="160" height="90" as="geometry" />
          </mxCell>
        </object>
        <mxCell id="GZI6seaXNkOKclOWjDqt-12" value="" style="ellipse;whiteSpace=wrap;html=1;aspect=fixed;rounded=0;strokeColor=#FFFFFF;fillColor=#08427b;fontColor=#ffffff;dashed=0;" vertex="1" parent="GZI6seaXNkOKclOWjDqt-10">
          <mxGeometry x="60" width="40" height="40" as="geometry" />
        </mxCell>
        <mxCell id="GZI6seaXNkOKclOWjDqt-13" value="Website" style="sketch=0;pointerEvents=1;shadow=0;dashed=0;html=1;strokeColor=none;fillColor=#434445;aspect=fixed;labelPosition=center;verticalLabelPosition=bottom;verticalAlign=top;align=center;outlineConnect=0;shape=mxgraph.vvd.web_browser;" vertex="1" parent="1">
          <mxGeometry x="131.83" y="280" width="56.34" height="40" as="geometry" />
        </mxCell>
        <mxCell id="GZI6seaXNkOKclOWjDqt-14" value="kubectl" style="sketch=0;points=[[0,0,0],[0.25,0,0],[0.5,0,0],[0.75,0,0],[1,0,0],[0,1,0],[0.25,1,0],[0.5,1,0],[0.75,1,0],[1,1,0],[0,0.25,0],[0,0.5,0],[0,0.75,0],[1,0.25,0],[1,0.5,0],[1,0.75,0]];outlineConnect=0;fontColor=#232F3E;gradientColor=#4D72F3;gradientDirection=north;fillColor=#3334B9;strokeColor=#ffffff;dashed=0;verticalLabelPosition=bottom;verticalAlign=top;align=center;html=1;fontSize=12;fontStyle=0;aspect=fixed;shape=mxgraph.aws4.resourceIcon;resIcon=mxgraph.aws4.command_line_interface;" vertex="1" parent="1">
          <mxGeometry x="540" y="280" width="40" height="40" as="geometry" />
        </mxCell>
        <mxCell id="GZI6seaXNkOKclOWjDqt-15" value="Domains" style="shape=table;startSize=30;container=1;collapsible=0;childLayout=tableLayout;fontStyle=1;align=center;" vertex="1" parent="1">
          <mxGeometry x="950" y="160" width="260" height="123" as="geometry" />
        </mxCell>
        <mxCell id="GZI6seaXNkOKclOWjDqt-16" value="" style="shape=tableRow;horizontal=0;startSize=0;swimlaneHead=0;swimlaneBody=0;top=0;left=0;bottom=0;right=0;collapsible=0;dropTarget=0;fillColor=none;points=[[0,0.5],[1,0.5]];portConstraint=eastwest;" vertex="1" parent="GZI6seaXNkOKclOWjDqt-15">
          <mxGeometry y="30" width="260" height="23" as="geometry" />
        </mxCell>
        <mxCell id="GZI6seaXNkOKclOWjDqt-17" value="" style="shape=partialRectangle;html=1;whiteSpace=wrap;connectable=0;fillColor=none;top=0;left=0;bottom=0;right=0;overflow=hidden;" vertex="1" parent="GZI6seaXNkOKclOWjDqt-16">
          <mxGeometry width="40" height="23" as="geometry">
            <mxRectangle width="40" height="23" as="alternateBounds" />
          </mxGeometry>
        </mxCell>
        <mxCell id="GZI6seaXNkOKclOWjDqt-18" value="api.mydomain.com" style="shape=partialRectangle;html=1;whiteSpace=wrap;connectable=0;fillColor=none;top=0;left=0;bottom=0;right=0;overflow=hidden;align=left;" vertex="1" parent="GZI6seaXNkOKclOWjDqt-16">
          <mxGeometry x="40" width="220" height="23" as="geometry">
            <mxRectangle width="220" height="23" as="alternateBounds" />
          </mxGeometry>
        </mxCell>
        <mxCell id="GZI6seaXNkOKclOWjDqt-20" value="" style="shape=tableRow;horizontal=0;startSize=0;swimlaneHead=0;swimlaneBody=0;top=0;left=0;bottom=0;right=0;collapsible=0;dropTarget=0;fillColor=none;points=[[0,0.5],[1,0.5]];portConstraint=eastwest;" vertex="1" parent="GZI6seaXNkOKclOWjDqt-15">
          <mxGeometry y="53" width="260" height="24" as="geometry" />
        </mxCell>
        <mxCell id="GZI6seaXNkOKclOWjDqt-21" value="" style="shape=partialRectangle;html=1;whiteSpace=wrap;connectable=0;fillColor=none;top=0;left=0;bottom=0;right=0;overflow=hidden;" vertex="1" parent="GZI6seaXNkOKclOWjDqt-20">
          <mxGeometry width="40" height="24" as="geometry">
            <mxRectangle width="40" height="24" as="alternateBounds" />
          </mxGeometry>
        </mxCell>
        <mxCell id="GZI6seaXNkOKclOWjDqt-22" value="mydomain.com" style="shape=partialRectangle;html=1;whiteSpace=wrap;connectable=0;fillColor=none;top=0;left=0;bottom=0;right=0;overflow=hidden;align=left;" vertex="1" parent="GZI6seaXNkOKclOWjDqt-20">
          <mxGeometry x="40" width="220" height="24" as="geometry">
            <mxRectangle width="220" height="24" as="alternateBounds" />
          </mxGeometry>
        </mxCell>
        <mxCell id="GZI6seaXNkOKclOWjDqt-24" value="" style="shape=tableRow;horizontal=0;startSize=0;swimlaneHead=0;swimlaneBody=0;top=0;left=0;bottom=0;right=0;collapsible=0;dropTarget=0;fillColor=none;points=[[0,0.5],[1,0.5]];portConstraint=eastwest;" vertex="1" parent="GZI6seaXNkOKclOWjDqt-15">
          <mxGeometry y="77" width="260" height="23" as="geometry" />
        </mxCell>
        <mxCell id="GZI6seaXNkOKclOWjDqt-25" value="" style="shape=partialRectangle;html=1;whiteSpace=wrap;connectable=0;fillColor=none;top=0;left=0;bottom=0;right=0;overflow=hidden;" vertex="1" parent="GZI6seaXNkOKclOWjDqt-24">
          <mxGeometry width="40" height="23" as="geometry">
            <mxRectangle width="40" height="23" as="alternateBounds" />
          </mxGeometry>
        </mxCell>
        <mxCell id="GZI6seaXNkOKclOWjDqt-26" value="www.mydomain.com" style="shape=partialRectangle;html=1;whiteSpace=wrap;connectable=0;fillColor=none;top=0;left=0;bottom=0;right=0;overflow=hidden;align=left;" vertex="1" parent="GZI6seaXNkOKclOWjDqt-24">
          <mxGeometry x="40" width="220" height="23" as="geometry">
            <mxRectangle width="220" height="23" as="alternateBounds" />
          </mxGeometry>
        </mxCell>
        <mxCell id="GZI6seaXNkOKclOWjDqt-28" style="shape=tableRow;horizontal=0;startSize=0;swimlaneHead=0;swimlaneBody=0;top=0;left=0;bottom=0;right=0;collapsible=0;dropTarget=0;fillColor=none;points=[[0,0.5],[1,0.5]];portConstraint=eastwest;" vertex="1" parent="GZI6seaXNkOKclOWjDqt-15">
          <mxGeometry y="100" width="260" height="23" as="geometry" />
        </mxCell>
        <mxCell id="GZI6seaXNkOKclOWjDqt-29" style="shape=partialRectangle;html=1;whiteSpace=wrap;connectable=0;fillColor=none;top=0;left=0;bottom=0;right=0;overflow=hidden;" vertex="1" parent="GZI6seaXNkOKclOWjDqt-28">
          <mxGeometry width="40" height="23" as="geometry">
            <mxRectangle width="40" height="23" as="alternateBounds" />
          </mxGeometry>
        </mxCell>
        <mxCell id="GZI6seaXNkOKclOWjDqt-30" value="*.mydomain.com" style="shape=partialRectangle;html=1;whiteSpace=wrap;connectable=0;fillColor=none;top=0;left=0;bottom=0;right=0;overflow=hidden;align=left;" vertex="1" parent="GZI6seaXNkOKclOWjDqt-28">
          <mxGeometry x="40" width="220" height="23" as="geometry">
            <mxRectangle width="220" height="23" as="alternateBounds" />
          </mxGeometry>
        </mxCell>
        <mxCell id="GZI6seaXNkOKclOWjDqt-31" style="edgeStyle=orthogonalEdgeStyle;rounded=0;orthogonalLoop=1;jettySize=auto;html=1;dashed=1;endArrow=block;endFill=1;strokeWidth=2;" edge="1" parent="1" source="GZI6seaXNkOKclOWjDqt-5" target="GZI6seaXNkOKclOWjDqt-13">
          <mxGeometry relative="1" as="geometry" />
        </mxCell>
        <mxCell id="GZI6seaXNkOKclOWjDqt-32" value="Admin/Monitoring/etc.&lt;br&gt;Website" style="sketch=0;pointerEvents=1;shadow=0;dashed=0;html=1;strokeColor=none;fillColor=#434445;aspect=fixed;labelPosition=center;verticalLabelPosition=bottom;verticalAlign=top;align=center;outlineConnect=0;shape=mxgraph.vvd.web_browser;" vertex="1" parent="1">
          <mxGeometry x="440" y="280" width="56.34" height="40" as="geometry" />
        </mxCell>
        <mxCell id="GZI6seaXNkOKclOWjDqt-35" style="edgeStyle=orthogonalEdgeStyle;rounded=0;orthogonalLoop=1;jettySize=auto;html=1;entryX=0.2;entryY=0;entryDx=0;entryDy=0;entryPerimeter=0;dashed=1;endArrow=block;endFill=1;strokeWidth=2;" edge="1" parent="1" source="GZI6seaXNkOKclOWjDqt-8" target="GZI6seaXNkOKclOWjDqt-34">
          <mxGeometry relative="1" as="geometry" />
        </mxCell>
        <mxCell id="GZI6seaXNkOKclOWjDqt-36" style="edgeStyle=orthogonalEdgeStyle;rounded=0;orthogonalLoop=1;jettySize=auto;html=1;entryX=0.8;entryY=0;entryDx=0;entryDy=0;entryPerimeter=0;dashed=1;endArrow=block;endFill=1;strokeWidth=2;" edge="1" parent="1" source="GZI6seaXNkOKclOWjDqt-11" target="GZI6seaXNkOKclOWjDqt-34">
          <mxGeometry relative="1" as="geometry" />
        </mxCell>
        <mxCell id="GZI6seaXNkOKclOWjDqt-38" value="" style="endArrow=block;html=1;rounded=0;dashed=1;strokeWidth=2;endFill=1;entryX=0;entryY=0.531;entryDx=0;entryDy=0;entryPerimeter=0;" edge="1" parent="1" target="GZI6seaXNkOKclOWjDqt-3">
          <mxGeometry width="50" height="50" relative="1" as="geometry">
            <mxPoint x="160" y="220" as="sourcePoint" />
            <mxPoint x="710" y="310" as="targetPoint" />
          </mxGeometry>
        </mxCell>
        <mxCell id="GZI6seaXNkOKclOWjDqt-39" value="Domain lookup" style="edgeLabel;html=1;align=center;verticalAlign=middle;resizable=0;points=[];" vertex="1" connectable="0" parent="GZI6seaXNkOKclOWjDqt-38">
          <mxGeometry x="0.5577" y="1" relative="1" as="geometry">
            <mxPoint x="57" y="-1" as="offset" />
          </mxGeometry>
        </mxCell>
        <mxCell id="GZI6seaXNkOKclOWjDqt-41" value="Worker&lt;br&gt;01" style="shape=cube;whiteSpace=wrap;html=1;boundedLbl=1;backgroundOutline=1;darkOpacity=0.05;darkOpacity2=0.1;size=10;" vertex="1" parent="1">
          <mxGeometry x="120" y="560" width="60" height="80" as="geometry" />
        </mxCell>
        <mxCell id="GZI6seaXNkOKclOWjDqt-42" value="Master&lt;br&gt;02" style="shape=cube;whiteSpace=wrap;html=1;boundedLbl=1;backgroundOutline=1;darkOpacity=0.05;darkOpacity2=0.1;size=10;" vertex="1" parent="1">
          <mxGeometry x="494.5799999999999" y="600" width="60" height="80" as="geometry" />
        </mxCell>
        <mxCell id="GZI6seaXNkOKclOWjDqt-43" value="Worker&lt;br&gt;02" style="shape=cube;whiteSpace=wrap;html=1;boundedLbl=1;backgroundOutline=1;darkOpacity=0.05;darkOpacity2=0.1;size=10;" vertex="1" parent="1">
          <mxGeometry x="188.17000000000002" y="560" width="60" height="80" as="geometry" />
        </mxCell>
        <mxCell id="GZI6seaXNkOKclOWjDqt-40" value="Master&lt;br&gt;01" style="shape=cube;whiteSpace=wrap;html=1;boundedLbl=1;backgroundOutline=1;darkOpacity=0.05;darkOpacity2=0.1;size=10;" vertex="1" parent="1">
          <mxGeometry x="436.40999999999997" y="600" width="60" height="80" as="geometry" />
        </mxCell>
        <mxCell id="GZI6seaXNkOKclOWjDqt-47" style="edgeStyle=orthogonalEdgeStyle;rounded=0;orthogonalLoop=1;jettySize=auto;html=1;entryX=0;entryY=0;entryDx=25;entryDy=0;entryPerimeter=0;dashed=1;endArrow=block;endFill=1;strokeWidth=2;curved=1;" edge="1" parent="1" source="GZI6seaXNkOKclOWjDqt-46" target="GZI6seaXNkOKclOWjDqt-40">
          <mxGeometry relative="1" as="geometry" />
        </mxCell>
        <mxCell id="GZI6seaXNkOKclOWjDqt-48" style="edgeStyle=orthogonalEdgeStyle;curved=1;rounded=0;orthogonalLoop=1;jettySize=auto;html=1;entryX=0;entryY=0;entryDx=25;entryDy=0;entryPerimeter=0;dashed=1;endArrow=block;endFill=1;strokeWidth=2;" edge="1" parent="1" source="GZI6seaXNkOKclOWjDqt-46" target="GZI6seaXNkOKclOWjDqt-42">
          <mxGeometry relative="1" as="geometry" />
        </mxCell>
        <mxCell id="GZI6seaXNkOKclOWjDqt-49" style="edgeStyle=orthogonalEdgeStyle;curved=1;rounded=0;orthogonalLoop=1;jettySize=auto;html=1;entryX=0;entryY=0;entryDx=25;entryDy=0;entryPerimeter=0;dashed=1;endArrow=block;endFill=1;strokeWidth=2;" edge="1" parent="1" source="GZI6seaXNkOKclOWjDqt-46" target="GZI6seaXNkOKclOWjDqt-44">
          <mxGeometry relative="1" as="geometry" />
        </mxCell>
        <mxCell id="GZI6seaXNkOKclOWjDqt-46" value="" style="sketch=0;outlineConnect=0;fontColor=#232F3E;gradientColor=none;fillColor=#4D27AA;strokeColor=none;dashed=0;verticalLabelPosition=bottom;verticalAlign=top;align=center;html=1;fontSize=12;fontStyle=0;aspect=fixed;pointerEvents=1;shape=mxgraph.aws4.network_load_balancer;" vertex="1" parent="1">
          <mxGeometry x="480.58" y="440" width="78" height="78" as="geometry" />
        </mxCell>
      </root>
    </mxGraphModel>
  </diagram>
</mxfile>
